<mxfile host="app.diagrams.net" modified="2024-01-17T14:04:51.432Z" agent="Mozilla/5.0 (Windows NT 10.0; Win64; x64; rv:121.0) Gecko/20100101 Firefox/121.0" version="22.1.21" etag="fJ_fVjrM0lujDrwFcnXG" type="github">
  <diagram name="Page-1" id="T83TTpa8zFjE1lLUYpZm">
    <mxGraphModel>
      <root>
        <mxCell id="0" />
        <mxCell id="1" parent="0" />
      </root>
    </mxGraphModel>
  </diagram>
</mxfile>
